<?xml version="1.0" encoding="UTF-8" standalone="no"?>
<svg
   xmlns:dc="http://purl.org/dc/elements/1.1/"
   xmlns:cc="http://creativecommons.org/ns#"
   xmlns:rdf="http://www.w3.org/1999/02/22-rdf-syntax-ns#"
   xmlns:svg="http://www.w3.org/2000/svg"
   xmlns="http://www.w3.org/2000/svg"
   viewBox="0 0 193.03751 190.1375"
   height="190.1375"
   width="193.03751"
   xml:space="preserve"
   version="1.1"
   id="svg2"><metadata
     id="metadata8"><rdf:RDF><cc:Work
         rdf:about=""><dc:format>image/svg+xml</dc:format><dc:type
           rdf:resource="http://purl.org/dc/dcmitype/StillImage" /></cc:Work></rdf:RDF></metadata><defs
     id="defs6" /><g
     transform="matrix(1.25,0,0,-1.25,0,190.1375)"
     id="g10"><g
       transform="scale(0.1,0.1)"
       id="g12"><path
         id="path14"
         style="fill:#ffffff;fill-opacity:1;fill-rule:nonzero;stroke:none"
         d="m 772.508,231.73 c 295.142,0 536.782,239.27 536.782,534.418 0,295.142 -251.4,532.312 -536.782,532.052 C 477.363,1297.92 234.125,1061.29 234.125,766.148 234.125,471 477.363,231.73 772.508,231.73" /><path
         id="path16"
         style="fill:#ffffff;fill-opacity:1;fill-rule:nonzero;stroke:none"
         d="m 1022.7,1104.6 c -69.091,-10.56 -161.751,-16.68 -258.79,-16.59 1.246,106.19 3.031,182.9 5.098,206.08 98.277,-16.75 187.633,-87.61 253.692,-189.49" /><path
         id="path18"
         style="fill:#d22027;fill-opacity:1;fill-rule:nonzero;stroke:none"
         d="m 1138.03,723.039 c -100.05,-15.266 -234.147,-24.121 -374.577,-23.996 -0.16,144.68 0.539,284.262 1.809,392.957 96.949,-0.09 189.527,6.03 258.598,16.57 67.58,-104.29 110.77,-241.062 114.17,-385.535" /><path
         id="path20"
         style="fill:#ffffff;fill-opacity:1;fill-rule:nonzero;stroke:none"
         d="m 1129.24,723.746 c -27.74,4.375 -51.13,50.719 -38.88,98.567 -39.13,-27.051 -83.17,28.539 -76.74,79.968 3.41,27.25 21.26,51.461 52.39,40.219 -12.67,43.492 -28.52,84.65 -47.03,122.53 -27.628,-3.51 -57.929,-6.42 -90.082,-8.68 28.555,-43.15 0.54,-83.284 -39.289,-76.901 -28.898,4.633 -55.863,34.931 -48.355,71.011 -23.453,-16.26 -71.695,-9.84 -76.047,41.68 88.574,0.46 166.484,3.43 258.833,16.47 0,-0.01 0,-0.01 0,-0.02 74.6,-123.086 106.67,-230.992 114.35,-384.867 -2.75,0.007 -6.44,-0.403 -9.15,0.023" /><path
         id="path22"
         style="fill:#ffffff;fill-opacity:1;fill-rule:nonzero;stroke:none"
         d="m 487.805,363.23 c -55.141,9.25 -91.785,21.11 -104.153,33.926 -13.629,15.321 -31.468,36.071 -44.097,52.227 -30.633,44.82 -31.223,45.676 -44.719,71.449 -23.473,49.66 -23.922,50.609 -33.137,78.207 -15.5,53.641 -15.797,54.664 -20.511,83.828 -3.016,25.321 -5.774,59.25 -6.79,84.731 l 0.457,23.172 c -0.933,-22.68 53.821,-44.204 148.543,-60.098 -0.214,-7.524 -0.32,-15.07 -0.308,-22.633 0.219,-139.519 39.953,-260.277 104.715,-344.809" /><path
         id="path24"
         style="fill:#ffffff;fill-opacity:1;fill-rule:nonzero;stroke:none"
         d="m 770.75,231.766 c -2.492,0.015 -5.812,0.031 -8.301,0.07 -4.914,0.113 -9.832,0.312 -14.746,0.441 -32.258,1.786 -53.363,4.875 -81.027,9.946 -69.629,15.91 -131.36,58.953 -179.262,121.953 47.262,-7.906 108.024,-13.906 178.68,-16.977 33.394,-1.453 66.98,-2.16 100.086,-2.187 1.25,-71.571 2.843,-113.192 4.57,-113.25" /><path
         id="path26"
         style="fill:#d22027;fill-opacity:1;fill-rule:nonzero;stroke:none"
         d="m 766.164,345.02 c -33.105,0.027 -66.687,0.738 -100.074,2.187 -70.57,3.066 -131.27,9.055 -178.508,16.945 -64.184,84.461 -103.523,204.801 -103.742,343.758 -0.008,6.086 0.058,12.156 0.199,18.215 64.352,-10.754 147.047,-18.914 243.184,-23.09 45.488,-1.976 91.234,-2.941 136.332,-2.98 0.008,-6.067 0.015,-12.141 0.023,-18.223 0.219,-138.965 1.184,-256.664 2.586,-336.812" /><path
         id="path28"
         style="fill:#d22027;fill-opacity:1;fill-rule:nonzero;stroke:none"
         d="m 765.344,337.656 c -4.598,-18.523 -30.543,-36.207 -67.289,-21.234 17.168,-22.652 2.3,-42.227 -27.91,-36.746 -23.481,4.258 -51.368,23.148 -53.547,42.054 -29.039,2.204 -55.575,4.997 -79.192,8.266 22.41,-26.035 47.399,-47.32 74.403,-63.117 3.23,1.32 8.23,0.988 24.234,-4.613 20.48,-7.172 39.602,-17.625 60.043,-24.899 0,-0.027 -0.004,-0.062 -0.008,-0.086 -16.023,2.465 -18.082,2.782 -29.449,4.949 -38.563,11.09 -110.344,31.739 -179.231,121.95 l -0.003,0.004 c 0,0 0.003,0 0.007,0 0,0 0.004,-0.004 0.004,-0.008 82.981,-12.809 163.758,-18.332 278.801,-19.063 -0.258,-2.238 -0.32,-5.273 -0.863,-7.457" /><path
         id="path30"
         style="fill:#ffffff;fill-opacity:1;fill-rule:nonzero;stroke:none"
         d="m 487.414,364.176 c -0.004,0 -0.004,0 -0.008,0 -73.886,105.816 -102.972,207.137 -103.742,361.383 41.762,-13.786 53.246,-74.789 42.512,-109.09 39.734,15.32 89.64,-53.321 72.16,-99.246 -8.047,-21.153 -28.961,-27.032 -50.856,-14.297 11.825,-40.086 27.18,-76.719 45.512,-109.16 28.082,-3.883 59.633,-7.203 94.164,-9.825 -27.73,34.133 -5.488,62.09 31.492,60.196 31.747,-1.629 73.774,-28.024 64.786,-64.09 28.64,12.918 77.121,2.316 82.785,-35.133 -34.797,0.262 -87.387,0.656 -154.75,5.313 -41.555,2.871 -82.543,10.726 -124.055,13.949" /><path
         id="path32"
         style="fill:#d22027;fill-opacity:1;fill-rule:nonzero;stroke:none"
         d="m 487.406,364.176 c 0,0.004 -0.004,0.004 -0.004,0.008 0,0 0.004,-0.004 0.004,-0.008" /><path
         id="path34"
         style="fill:#d22027;fill-opacity:1;fill-rule:nonzero;stroke:none"
         d="m 487.402,364.184 0.004,0 c -0.004,0 -0.004,0 -0.008,0" /><path
         id="path36"
         style="fill:#d22027;fill-opacity:1;fill-rule:nonzero;stroke:none"
         d="m 487.402,364.184 c -61.129,11.035 -87.562,19.621 -104.765,34.031 -12.383,14 -28.782,32.801 -40.336,47.492 2.109,-2.656 3.5,-4.414 9.187,-11.047 -5.586,6.996 -33.543,42.692 -35.57,58.43 15.191,2.437 64.141,-73.91 64.621,-74.684 14.852,-5.539 34.195,-10.734 57.504,-15.453 -21.93,33.047 -40.305,70.188 -54.449,110.664 -33.332,-16.832 -75.864,71.258 -62.383,108.418 2.746,7.578 11.578,23.36 34.16,6.285 -17.019,39.207 -12.539,97.305 28.52,97.211 0.929,-129.875 18.886,-241.023 103.511,-361.347" /><path
         id="path38"
         style="fill:#000000;fill-opacity:1;fill-rule:nonzero;stroke:none"
         d="m 1135.66,631.051 -0.68,0.972 c 2.34,23.926 3.53,48.575 3.49,73.852 -0.01,5.914 -0.08,11.813 -0.23,17.703 0.26,0.039 0.53,0.082 0.79,0.121 0.14,-5.89 0.22,-11.793 0.23,-17.707 0.04,-25.656 -1.19,-50.672 -3.61,-74.941" /><path
         id="path40"
         style="fill:#000000;fill-opacity:1;fill-rule:nonzero;stroke:none"
         d="m 853.57,238.094 -0.316,-0.051 C 1000.51,260.922 1114,417.195 1134.98,632.027 l 0.68,-0.976 C 1114.36,416.848 1000.82,261.055 853.563,238.094" /><path
         id="path42"
         style="fill:#231f20;fill-opacity:1;fill-rule:nonzero;stroke:none"
         d="m 1031.29,299.016 c -36.36,-18.7 -43.927,-22.59 -82.837,-37.196 -11.453,-3.726 -26.777,-8.543 -38.359,-11.832 74.914,20.188 141.416,63.012 193.986,122.586 -11.18,-24.808 -18.84,-38.965 -58.01,-64.98 -4.87,-2.946 -9.8,-5.805 -14.78,-8.578" /><path
         id="path44"
         style="fill:#efc516;fill-opacity:1;fill-rule:nonzero;stroke:none"
         d="m 1046.07,307.594 c 32.23,22.281 45.84,35.445 58.01,64.984 76.99,87.262 124.08,210.457 123.86,351.094 -0.01,5.914 -0.1,11.812 -0.28,17.695 24.33,6.406 43.88,13.418 57.66,20.946 0.2,-5.875 0.3,-11.77 0.31,-17.684 0.29,-188.719 -95.34,-349.938 -239.56,-437.039" /><path
         id="path46"
         style="fill:#231f20;fill-opacity:1;fill-rule:nonzero;stroke:none"
         d="m 885.227,445.965 c -35.645,35.734 -35.645,35.734 -121.309,116.883 -0.191,37.449 -0.324,77.257 -0.391,118.984 -0.007,5.91 -0.015,11.816 -0.023,17.719 46.437,-0.043 92.184,0.898 136.238,2.73 0.059,-5.898 0.09,-11.804 0.102,-17.718 0.136,-89.758 -5.156,-170.766 -14.617,-238.598" /><path
         id="path48"
         style="fill:#efc516;fill-opacity:1;fill-rule:nonzero;stroke:none"
         d="m 793.57,232.23 -3.386,-0.132 c -7.391,-0.211 -10.762,-0.309 -13.848,-0.309 l -5.598,-0.023 c -3.105,0.101 -5.8,132.414 -6.82,331.078 80.141,-75.84 88.516,-83.77 121.309,-116.879 C 867.055,315.645 833.504,233.953 793.57,232.23" /><path
         id="path50"
         style="fill:#231f20;fill-opacity:1;fill-rule:nonzero;stroke:none"
         d="m 818.926,233.883 c -4.246,-0.344 -9.914,-0.781 -14.164,-1.07 -3.36,-0.188 -7.832,-0.43 -11.192,-0.583 39.899,1.719 73.43,83.278 91.614,213.411 38.671,-40.649 55.734,-60.5 74.437,-90.953 C 923.199,282.785 874.234,238.824 818.926,233.883" /><path
         id="path52"
         style="fill:#efc516;fill-opacity:1;fill-rule:nonzero;stroke:none"
         d="m 959.621,354.688 c -18.43,28.953 -29.621,44.296 -74.437,90.953 9.488,67.898 14.796,149.019 14.66,238.922 -0.012,5.914 -0.043,11.82 -0.098,17.718 44.09,1.832 86.481,4.555 126.164,8.074 0.11,-5.894 0.16,-11.796 0.17,-17.71 0.21,-137.985 -24.99,-256.086 -66.459,-337.957" /><path
         id="path54"
         style="fill:#231f20;fill-opacity:1;fill-rule:nonzero;stroke:none"
         d="m 970.406,289.008 c 6.739,21.199 6.145,33.711 -10.621,66.004 41.375,81.859 66.505,199.832 66.295,337.633 -0.01,5.914 -0.06,11.816 -0.17,17.71 14.89,1.321 29.4,2.754 43.48,4.293 19.69,-23.21 44.2,-52.101 65.59,-82.625 -14.95,-153.117 -76.9,-276.488 -164.574,-343.015" /><path
         id="path56"
         style="fill:#efc516;fill-opacity:1;fill-rule:nonzero;stroke:none"
         d="m 853.254,238.043 c -3.981,-0.566 -9.285,-1.355 -13.277,-1.871 -12.543,-1.5 -12.543,-1.5 -19.036,-2.106 l -2.015,-0.183 c 55.39,4.949 104.422,49.031 140.859,121.129 14.461,-28.867 19.121,-42.035 10.621,-66.004 -35.336,-26.813 -74.851,-44.395 -117.152,-50.965" /><path
         id="path58"
         style="fill:#efc516;fill-opacity:1;fill-rule:nonzero;stroke:none"
         d="m 910.094,249.988 -12.934,-3.293 c -21.508,-4.832 -21.508,-4.832 -33.148,-6.882 l -10.442,-1.719 c 104.473,16.289 191.97,99.441 241.6,222.879 13.71,-36.555 18.03,-53.653 8.84,-88.477 C 1051.45,312.961 984.973,270.168 910.098,249.988" /><path
         id="path60"
         style="fill:#231f20;fill-opacity:1;fill-rule:nonzero;stroke:none"
         d="m 897.16,246.695 c -21.508,-4.832 -21.508,-4.832 -33.148,-6.882 l -10.442,-1.719 c 42.075,6.558 81.403,23.969 116.61,50.488 -12.293,-18.289 -20.66,-26.355 -60.102,-38.602 l -12.918,-3.285" /><path
         id="path62"
         style="fill:#231f20;fill-opacity:1;fill-rule:nonzero;stroke:none"
         d="m 1104.01,372.496 c 7.33,30.621 7.08,47.699 -8.84,88.481 28.25,70.253 44.23,153.558 44.09,245.015 -0.01,5.914 -0.09,11.817 -0.23,17.707 33.82,5.188 63.73,11.11 88.63,17.668 0.18,-5.883 0.27,-11.781 0.28,-17.695 0.22,-140.684 -46.9,-263.91 -123.93,-351.176" /><path
         id="path64"
         style="fill:#efc516;fill-opacity:1;fill-rule:nonzero;stroke:none"
         d="m 1031.29,299.016 c 4.82,2.679 9.58,5.437 14.29,8.277 l -5.43,-3.246 -8.86,-5.031" /><path
         id="path66"
         style="fill:#231f20;fill-opacity:1;fill-rule:nonzero;stroke:none"
         d="m 1288.12,746.031 c 0.3,-191.742 -98.91,-355.367 -247.73,-441.843 l -0.24,-0.141 5.44,3.25 c 144.48,87.031 240.33,248.398 240.04,437.332 -0.01,5.914 -0.11,11.809 -0.31,17.684 0.85,0.464 1.68,0.933 2.49,1.402 0.2,-5.875 0.3,-11.77 0.31,-17.684" /><path
         id="path68"
         style="fill:#efc516;fill-opacity:1;fill-rule:nonzero;stroke:none"
         d="m 1094.55,461.023 c -18.91,38.516 -31.73,59.016 -75.01,112.196 4.34,37.683 6.6,77.64 6.54,119.426 -0.01,5.914 -0.06,11.816 -0.17,17.71 40.64,3.606 78.44,8.047 112.33,13.223 0.15,-5.89 0.22,-11.789 0.23,-17.703 0.15,-91.391 -15.77,-174.637 -43.92,-244.852" /><path
         id="path70"
         style="fill:#231f20;fill-opacity:1;fill-rule:nonzero;stroke:none"
         d="M 1019.49,572.785 C 988.539,608.32 973,626.156 899.746,702.281 c 41.434,2.067 74.164,3.699 126.164,8.328 0.1,-5.976 0.16,-11.968 0.17,-17.964 0.06,-41.946 -2.22,-82.051 -6.59,-119.86" /><path
         id="path72"
         style="fill:#231f20;fill-opacity:1;fill-rule:nonzero;stroke:none"
         d="m 383.816,725.652 c -0.25,0.039 -0.5,0.082 -0.753,0.125 0.707,31.434 3.406,62.493 7.933,92.918 l 0.57,-1.222 c -4.418,-30.075 -7.058,-60.762 -7.75,-91.821" /><path
         id="path74"
         style="fill:#231f20;fill-opacity:1;fill-rule:nonzero;stroke:none"
         d="m 391.566,817.473 -0.57,1.222 c 32.77,220.295 161.356,407.445 322.293,464.835 l -0.687,-0.3 C 552.082,1225.36 423.957,1037.89 391.566,817.473" /><path
         id="path76"
         style="fill:#231f20;fill-opacity:1;fill-rule:nonzero;stroke:none"
         d="m 712.602,1283.23 0.687,0.3 c 18.617,6.64 37.668,11.54 57.051,14.56 l 0,0 c -19.625,-3.07 -38.906,-8.07 -57.738,-14.86" /><path
         id="path78"
         style="fill:#efc516;fill-opacity:1;fill-rule:nonzero;stroke:none"
         d="m 449.188,1125.95 c 18.691,41.92 32.394,62.85 72.097,96.82 73.922,44.39 158.785,71.45 249.055,75.32 -124.289,-11.24 -237.231,-75.8 -321.152,-172.14" /><path
         id="path80"
         style="fill:#231f20;fill-opacity:1;fill-rule:nonzero;stroke:none"
         d="m 301.297,743.68 c -21.758,6.343 -38.567,13.14 -49.859,20.222 5.917,193.364 113.367,364.918 269.851,458.868 -37.004,-32.85 -53.457,-52.42 -72.101,-96.82 C 361.352,1025.11 305.301,889.457 301.297,743.68" /><path
         id="path82"
         style="fill:#efc516;fill-opacity:1;fill-rule:nonzero;stroke:none"
         d="m 763.504,699.551 c -45.082,0.039 -90.813,1 -136.281,2.976 -1.371,0.059 -2.743,0.121 -4.11,0.18 0.723,95.41 8.442,188.434 21.383,271.719 38.774,-48.653 59.109,-72.258 119.121,-134.903 -0.125,-45.496 -0.164,-92.46 -0.113,-139.972" /><path
         id="path84"
         style="fill:#efc516;fill-opacity:1;fill-rule:nonzero;stroke:none"
         d="M 644.555,974.801 C 608.25,1025.3 592.691,1051.54 577.684,1098.2 627.535,1203.35 695.434,1278 770.34,1298.09 716.996,1268.02 670.395,1140.8 644.555,974.801" /><path
         id="path86"
         style="fill:#231f20;fill-opacity:1;fill-rule:nonzero;stroke:none"
         d="m 623.113,702.711 c -46.687,2.09 -90.164,5.125 -129.863,8.937 2.234,143.418 34.152,280.497 84.43,386.552 15.34,-44.76 27.75,-70.13 66.875,-123.399 -12.977,-83.379 -20.715,-176.539 -21.442,-272.09" /><path
         id="path88"
         style="fill:#efc516;fill-opacity:1;fill-rule:nonzero;stroke:none"
         d="m 493.25,711.648 c -14.895,1.434 -29.258,2.973 -43.059,4.618 -17.91,27.437 -40.195,61.582 -58.625,101.207 22.922,155.984 93.786,295.457 190.145,384.187 -12.844,-35.42 -15.41,-56.44 -4.223,-103.87 C 527.324,991.797 495.48,854.887 493.25,711.648" /><path
         id="path90"
         style="fill:#231f20;fill-opacity:1;fill-rule:nonzero;stroke:none"
         d="m 577.488,1097.79 c -9.629,43.63 -10.437,65.88 4.223,103.87 55.781,51.37 120.109,85.72 188.629,96.43 -75,-20.11 -142.977,-94.93 -192.852,-200.3" /><path
         id="path92"
         style="fill:#231f20;fill-opacity:1;fill-rule:nonzero;stroke:none"
         d="m 441.609,998.414 c -7.824,51.926 -7.843,79.016 7.661,127.626 83.914,96.29 196.824,160.82 321.07,172.05 l 0,0 c -29.617,-4.96 -34.953,-5.86 -57.051,-14.56 C 598.688,1242.67 500.488,1136 441.609,998.414" /><path
         id="path94"
         style="fill:#efc516;fill-opacity:1;fill-rule:nonzero;stroke:none"
         d="m 582.055,1202.38 c 18.008,31.19 29.84,46.26 75.047,70 36.261,13.39 74.187,22.18 113.238,25.71 -68.36,-10.64 -132.555,-44.73 -188.285,-95.71" /><path
         id="path96"
         style="fill:#efc516;fill-opacity:1;fill-rule:nonzero;stroke:none"
         d="m 383.063,725.777 c -32.036,5.379 -59.493,11.407 -81.766,17.903 4.004,145.824 60.09,281.52 147.973,382.36 -13.657,-45.19 -16.864,-71.26 -7.661,-127.626 -35.222,-82.309 -56.371,-175.676 -58.543,-272.637" /><path
         id="path98"
         style="fill:#231f20;fill-opacity:1;fill-rule:nonzero;stroke:none"
         d="m 521.793,1223.08 c 39.211,28.26 61.262,41.62 122.371,60.3 40.457,9.62 82.711,14.71 126.176,14.71 l 0,0 c -90.067,-3.86 -174.746,-30.81 -248.547,-75.01" /><path
         id="path100"
         style="fill:#efc516;fill-opacity:1;fill-rule:nonzero;stroke:none"
         d="m 251.441,763.902 c -11.23,7.043 -17.007,14.375 -16.769,21.828 l 0.91,18.586 c 15.43,233.634 184.477,425.774 408.582,479.064 -50.57,-16.04 -78.75,-27.97 -122.371,-60.3 C 365.035,1129.19 257.359,957.469 251.441,763.898" /><path
         id="path102"
         style="fill:#231f20;fill-opacity:1;fill-rule:nonzero;stroke:none"
         d="m 493.25,711.648 c -40.648,3.907 -77.328,8.633 -109.437,14.004 2.167,96.891 23.246,190.2 58.355,272.473 13.562,-54.008 24.523,-82.801 62.676,-146.852 -6.852,-45.246 -10.856,-92.085 -11.594,-139.625" /><path
         id="path104"
         style="fill:#efc516;fill-opacity:1;fill-rule:nonzero;stroke:none"
         d="m 493.246,711.395 c 0.731,47.785 4.762,94.867 11.668,140.332 32.801,-48.825 52.957,-77.625 118.199,-149.016 -44.718,2.25 -77.035,3.875 -129.867,8.684" /><path
         id="path106"
         style="fill:#231f20;fill-opacity:1;fill-rule:nonzero;stroke:none"
         d="m 657.102,1272.38 c 29.804,12.05 55.543,22.45 113.238,25.71 l 0,0 c -39.051,-3.53 -76.977,-12.32 -113.238,-25.71" /><path
         id="path108"
         style="fill:none;stroke:#000000;stroke-width:8;stroke-linecap:round;stroke-linejoin:round;stroke-miterlimit:4;stroke-dasharray:none;stroke-opacity:1"
         d="m 1307.95,769.375 c -0.53,-28.805 -1.32,-72.328 -16.71,-134.184 -13.9,-55.867 -38.19,-105.023 -46.37,-119.25 -27.67,-48.105 -79.16,-137.648 -204.47,-211.753" /><path
         id="path110"
         style="fill:#231f20;fill-opacity:1;fill-rule:nonzero;stroke:none"
         d="m 1288.82,764.234 c 13.68,7.954 20.07,15.95 19.81,23.793 7.34,-223.418 -118.5,-396.754 -267.31,-483.23 l -0.55,-0.32 5.63,3.367 c 144.44,87 240.26,248.355 239.97,437.293 -0.01,5.914 -0.12,11.808 -0.31,17.683 0.92,0.5 1.81,1 2.67,1.504 0.2,-5.875 0.31,-11.769 0.32,-17.683" /><path
         id="path112"
         style="fill:none;stroke:#000000;stroke-width:8;stroke-linecap:round;stroke-linejoin:round;stroke-miterlimit:4;stroke-dasharray:none;stroke-opacity:1"
         d="m 1288.82,764.234 c 13.68,7.954 20.07,15.95 19.81,23.793 7.34,-223.418 -118.5,-396.754 -267.31,-483.23 l -0.55,-0.32 5.63,3.367 c 144.44,87 240.26,248.355 239.97,437.293 -0.01,5.914 -0.12,11.808 -0.31,17.683 0.92,0.5 1.81,1 2.67,1.504 0.2,-5.875 0.31,-11.769 0.32,-17.683" /><path
         id="path114"
         style="fill:#d22027;fill-opacity:1;fill-rule:nonzero;stroke:none"
         d="m 1024.6,1108.82 c -0.01,0 -0.01,0 -0.01,0.01 0,0 0,0 0.01,0 0.15,0.03 0.28,0.05 0.43,0.07 l -0.02,0 c 0,0 0.12,0.02 0.26,0.04 5.2,0.86 10.08,1.7 14.78,2.54 30.58,5.64 97.22,20.25 97.22,40.46 0,0 29.69,-27.13 49.6,-64.14 2.39,-4.03 4.43,-8.21 5.98,-12.46 1.74,-4.24 2.96,-8.17 3.6,-11.7 0.15,-0.23 0.3,-0.45 0.44,-0.68 0.1,-1.71 0.09,-3.21 0.03,-4.62 -0.01,-0.58 -0.04,-1.15 -0.11,-1.7 -1.13,-11.5 -8.22,-11.73 -15.86,-8.32 -0.81,0.31 -1.61,0.59 -2.47,1 -27.48,12.37 -36.43,37.54 -41.79,47.94 -13.94,-4.42 -37.02,-14.44 -56.21,-18.17 -2.23,-0.44 -6.32,-1.4 -8.61,-1.83 22.6,-37.25 44.17,-81.697 59.63,-124.764 26.93,27.66 69.05,-23.652 71.08,-73.215 1.19,-29.113 -11.9,-55.023 -38.48,-45.695 21.29,-39.438 14.46,-97.262 -25.95,-109.914 -6.72,129.656 -28.69,244.734 -114.1,384.918 l -0.01,0 0,0" /><path
         id="path116"
         style="fill:#d22027;fill-opacity:1;fill-rule:nonzero;stroke:none"
         d="m 1029.44,1208.26 c -0.13,0.08 -0.26,0.16 -0.39,0.24 0.11,0 0.22,-0.01 0.32,-0.01 -0.12,0.4 -0.24,0.8 -0.32,1.17 0.39,0.51 0.91,1.19 1.3,1.7 0.65,0.09 1.21,0.15 1.74,0.2 l -0.11,0.14 c 0,0 3.89,16.31 65.28,-26.08 -104.338,81.43 -210.182,104.58 -272.885,110.71 6.645,-1.96 11.656,-3.91 15.418,-5.77 3.277,-1.62 5.605,-3.16 7.258,-4.59 0.156,0.03 0.265,0.05 0.265,0.05 7.614,-0.84 14.504,-2.17 20.668,-3.69 l 0,0 c 0.004,0 0.004,0 0.008,0 2.223,-0.78 4.465,-1.59 6.723,-2.44 0.285,-0.1 0.566,-0.21 0.851,-0.32 1.954,-0.74 3.914,-1.51 5.891,-2.31 0.496,-0.2 0.984,-0.4 1.484,-0.6 1.821,-0.75 3.649,-1.53 5.485,-2.33 0.566,-0.24 1.125,-0.48 1.691,-0.73 2.34,-1.04 4.684,-2.1 7.043,-3.23 l -0.008,-0.09 c 18.856,-9.22 34.102,-19.56 34.2,-27.48 -2.813,-1.71 -3.668,-2.23 -11.977,0 31.625,-22.55 76.941,-64.99 103.735,-96.26 18.41,3.49 45.84,7.44 58.51,11.68 -0.93,-0.93 -46.68,33.46 -52.18,50.04" /><path
         id="path118"
         style="fill:#ffffff;fill-opacity:1;fill-rule:nonzero;stroke:none"
         d="m 1136.98,1151.55 c -13.16,12.35 -26.43,23.69 -39.72,34.07 -24.85,17.16 -40.28,24.69 -49.84,27.59 l 0.12,0.13 c 0,0 -30.62,9.85 -13.31,-13.58 l 0.08,0.08 c 13.28,-17.62 46.52,-42.41 47.31,-41.62 -12.67,-4.24 -40.1,-8.19 -58.51,-11.68 -26.794,31.27 -72.11,73.71 -103.735,96.26 8.309,-2.23 9.164,-1.71 11.977,0 -0.098,7.92 -15.344,18.26 -34.2,27.48 l 0.008,0.09 c -2.359,1.13 -4.707,2.2 -7.043,3.23 -0.566,0.25 -1.125,0.49 -1.691,0.73 -1.836,0.8 -3.664,1.58 -5.485,2.33 -0.5,0.2 -0.988,0.4 -1.484,0.6 -1.973,0.8 -3.941,1.57 -5.891,2.31 -0.285,0.11 -0.566,0.22 -0.851,0.32 -2.254,0.85 -4.5,1.66 -6.723,2.44 -0.004,0 -0.004,0 -0.008,0 -6.164,1.52 -13.054,2.85 -20.668,3.69 0,0 -0.109,-0.02 -0.265,-0.05 0.433,-0.37 0.75,-0.72 1.097,-1.08 l -2.023,0.99 c 0.398,0.02 0.73,0.06 0.926,0.09 -1.653,1.43 -3.981,2.97 -7.258,4.59 -3.762,1.86 -8.773,3.81 -15.418,5.77 -15.25,1.49 -27.926,1.98 -37.43,2.05 -7.164,0.28 -12.945,0.33 -14.183,-0.11 -0.094,-0.03 -0.117,-0.08 -0.125,-0.13 -2.207,-0.08 -3.449,-0.17 -3.449,-0.17 l 2.378,-0.76 c -1.355,0.21 -2.753,0.44 -4.066,0.64 3.344,-0.55 6.676,-1.18 10,-1.86 8.332,-2.76 25.676,-7.38 38.77,-10.77 80.253,-28.26 152.527,-91.51 208.33,-176.4 0.85,0.13 1.67,0.27 2.51,0.41 49.69,8.34 77.21,17.54 96.93,26.65 0.05,0.02 0.1,0.04 0.15,0.06 14.19,7.85 12.62,15.57 12.62,15.57 l 0.17,0.04" /><path
         id="path120"
         style="fill:#d22027;fill-opacity:1;fill-rule:nonzero;stroke:none"
         d="m 1024.04,1108.59 0,0 c 0,0 0,0 0,0 0,0.01 0,0 0,0 0,0 0,0 0,0 -87.11,128.39 -167.216,166.76 -240.091,185.58 1.895,-0.55 3.774,-1.13 5.66,-1.74 -3.406,0.9 -6.851,1.81 -9.906,2.61 -0.887,0.29 -1.695,0.56 -2.418,0.8 2.215,-0.54 4.438,-1.1 6.664,-1.67 -2.527,0.73 -5.094,1.4 -7.742,2.03 -0.906,0.31 -1.613,0.56 -2.125,0.75 0.215,-0.12 0.453,-0.26 0.742,-0.43 -1.672,0.39 -3.367,0.76 -5.133,1.12 l 0,0 0,0 c 15.606,-17.23 37.434,-24.52 42.715,-26.09 -1.504,-6.46 -0.39,-19.36 22.137,-35.66 3.5,-2.53 6.871,-4.52 10.117,-6.13 34.735,-18.15 42.403,-4.02 44.035,1.65 0.196,0.15 0.407,0.28 0.594,0.45 10.609,-7.82 31.238,-24.43 54.055,-50.25 13.133,-15.78 25.527,-29.53 34.859,-43.31 -21.453,-2.72 -49.898,-5.25 -78.07,-7.26 -1.598,34.09 -26.176,51.09 -41.656,56.84 -33.848,12.58 -44.981,-27.26 -30.325,-55.27 -26.797,14.49 -58.48,1.58 -62.937,-40.74 105.836,0.62 178.406,5.31 258.825,16.72 0,0 0,0.01 0.01,0.01 0,0 -0.01,0 -0.01,0.01" /><path
         id="path122"
         style="fill:#231f20;fill-opacity:1;fill-rule:nonzero;stroke:none"
         d="m 763.617,839.523 c -52.551,55.122 -80.719,86.051 -119.117,134.907 25.82,166.18 72.457,293.56 125.84,323.66 l 0,0 c -3.449,-39.1 -6.113,-230.38 -6.723,-458.57" /><path
         id="path124"
         style="fill:#231f20;fill-opacity:1;fill-rule:nonzero;stroke:none"
         d="m 127.164,1163.55 3.063,-1.51 c -5.196,-10.89 -2.762,-16.91 7.558,-22.04 l 43.539,-21.59 c 19.992,-9.92 35.121,-33.3 17.766,-68.29 -15.277,-30.8 -40.692,-37.88 -63.75,-26.44 l -47.0861,23.35 c -10.3203,5.12 -13.375,3.02 -18.9726,-7.87 l -3.0665,1.52 20.5586,41.45 3.0625,-1.52 -0.7187,-1.46 c -4.3984,-8.86 -3.9024,-13.94 5.4492,-18.58 l 44.8286,-22.23 c 21.769,-10.8 41.152,-4.54 53.07,19.49 9.039,18.22 10.656,40.52 -16.758,54.12 l -37.57,18.64 c -15.481,7.68 -19.422,6.62 -26.707,-6.45 l -3.063,1.52 18.797,37.89" /><path
         id="path126"
         style="fill:#231f20;fill-opacity:1;fill-rule:nonzero;stroke:none"
         d="m 313.508,1216.94 -134.688,-8.44 59.051,-49.76 c 9.91,-8.35 13.832,-7.89 23.692,3.81 l 2.613,-2.2 -26.906,-31.94 -2.618,2.21 0.465,0.55 c 7.192,8.53 6.621,13.72 0.289,19.06 l -67.726,57.06 c -4.867,-1.31 -8.985,-3.96 -13.184,-8.66 l -2.613,2.2 18.207,21.61 122.219,7.89 -54.786,46.16 c -8.398,7.07 -12,5.87 -21.554,-4.91 l -2.614,2.21 27.141,32.21 2.613,-2.21 c -8.699,-10.32 -8.765,-14.03 -3.394,-18.56 l 76.808,-64.71 -3.015,-3.58" /><path
         id="path128"
         style="fill:#231f20;fill-opacity:1;fill-rule:nonzero;stroke:none"
         d="m 379.02,1274.87 -33.657,-27.94 -2.183,2.63 c 8.242,7.55 8.203,11.26 0.5,20.53 l -48.981,59 c -6.207,7.48 -10.562,7.37 -18.664,1.35 l -2.183,2.63 33.652,27.94 2.187,-2.63 c -8.726,-7.24 -10.164,-11.71 -2.461,-20.99 l 48.747,-58.72 c 6.785,-8.17 11.3,-9.1 20.859,-1.17 l 2.184,-2.63" /><path
         id="path130"
         style="fill:#231f20;fill-opacity:1;fill-rule:nonzero;stroke:none"
         d="m 445.313,1316.13 -82.938,64.26 c -9.617,7.51 -12.844,8.75 -22.316,3.2 l -1.731,2.95 42.707,25.03 1.727,-2.95 c -14.102,-8.69 -15.61,-13.95 -8.473,-19.37 l 68.731,-53.18 -13.055,78.51 c -0.84,5.35 -1.727,9 -3.004,11.18 -2.727,4.66 -7.703,4.24 -18.262,-1.94 l -1.73,2.95 36.027,21.11 1.731,-2.95 c -8.079,-4.73 -10.086,-10.91 -8.168,-22.73 l 16.519,-101.52 -7.765,-4.55" /><path
         id="path132"
         style="fill:#231f20;fill-opacity:1;fill-rule:nonzero;stroke:none"
         d="m 577.535,1421.7 -3.23,-1.12 c -5.532,11.62 -9.231,11.86 -16.207,9.46 l -28.758,-9.92 12.5,-36.25 c 2.699,-7.83 6.117,-8.36 12.414,-6.19 l 26.207,9.04 c 11.91,4.11 13.898,9.93 13.105,26.03 l 3.063,1.06 6.023,-26.29 -90.359,-31.16 -1.113,3.23 4.765,1.64 c 13.614,4.7 14.703,9.26 11.184,19.47 l -24.766,71.81 c -3.285,9.53 -6.906,12.85 -18.308,8.92 l -3.742,-1.29 -1.118,3.23 81.68,28.17 9.52,-23.18 -3.063,-1.06 c -7.203,13.7 -12.512,15.3 -18.641,13.18 l -35.902,-12.38 14.438,-41.86 30.457,10.51 c 6.125,2.11 8.023,6 5.468,16.16 l 3.235,1.12 11.148,-32.33" /><path
         id="path134"
         style="fill:#231f20;fill-opacity:1;fill-rule:nonzero;stroke:none"
         d="m 645.816,1508.7 c 3.176,0.74 5.497,1.01 8.895,1.42 27.523,3.27 36.562,-8.7 38.539,-25.32 2.551,-21.45 -9.496,-31.41 -29.336,-33.76 -4.109,-0.49 -6.769,-0.99 -11.125,-0.97 l -6.973,58.63 z m 7.379,-62.02 c 2.879,0.16 5.227,0.26 9.157,0.73 4.828,0.57 7.664,1.09 12.113,1.8 4.629,-2.35 11.5,-6.79 20.301,-13.72 l 13.199,-10.39 c 17.801,-14.02 26.652,-19.85 57.762,-14.7 l -0.383,3.21 c -13.871,-0.74 -25.559,4.58 -37.36,13.87 l -15.8,12.44 c -9.399,7.4 -15.356,11.77 -22.586,16.17 14.144,6.03 21.922,18.37 20.328,31.78 -2.168,18.23 -18.621,30.05 -51.688,26.11 -11.617,-1.38 -15.172,-1.98 -22.457,-3.21 -7.285,-1.23 -18.101,-3.24 -22.394,-3.75 l 0.406,-3.4 3.93,0.47 c 10.367,1.23 13.789,-1.63 15.109,-12.7 l 8.949,-75.25 c 1.426,-11.98 -1.988,-15.28 -12.535,-16.54 l -3.035,-0.36 0.402,-3.4 50.582,6.02 -0.402,3.4 -4.113,-0.49 c -10.008,-1.19 -14.617,0.98 -15.891,11.7 l -3.594,30.21" /><path
         id="path136"
         style="fill:#231f20;fill-opacity:1;fill-rule:nonzero;stroke:none"
         d="m 791.516,1436.35 c 2.519,-16.27 14.351,-26.58 28.351,-27.67 12.024,-0.94 25.309,5.06 26.418,19.24 2.016,25.84 -54.972,38.23 -52.519,69.63 1.164,14.9 15.672,24.96 33.976,23.53 15.074,-1.17 17.774,-5.9 24.055,-6.39 1.433,-0.11 2.18,0.19 3.371,1.54 l 2.871,-0.22 1.27,-23.03 -3.051,0.24 c -4.016,13.31 -14.856,22.46 -27.238,23.43 -11.844,0.92 -20.633,-5.25 -21.415,-15.3 -1.992,-25.48 55.079,-36.8 52.5,-69.82 -1.371,-17.58 -18.007,-29.47 -39.003,-27.83 -9.872,0.77 -22.051,6.6 -24.567,6.8 -1.613,0.13 -2.941,-0.68 -3.742,-1.7 l -3.051,0.24 -1.637,27.57 3.411,-0.26" /><path
         id="path138"
         style="fill:#231f20;fill-opacity:1;fill-rule:nonzero;stroke:none"
         d="m 929.918,1389.13 -42.738,9.32 0.73,3.34 c 11.016,-1.85 13.918,0.46 16.485,12.25 l 16.324,74.92 c 2.07,9.5 -0.699,12.87 -10.434,15.54 l 0.731,3.34 42.738,-9.31 -0.731,-3.34 c -11.078,2.41 -15.484,0.79 -18.05,-10.99 l -16.25,-74.57 c -2.258,-10.38 -0.211,-14.51 11.922,-17.15 l -0.727,-3.35" /><path
         id="path140"
         style="fill:#231f20;fill-opacity:1;fill-rule:nonzero;stroke:none"
         d="m 1020.65,1376.23 c -3.58,-9.04 -1.83,-13.41 8.38,-17.46 l 6.19,-2.46 -1.26,-3.18 -52.714,20.9 1.262,3.18 6.191,-2.45 c 10.207,-4.05 14.481,-2.06 18.061,6.97 l 32.78,82.66 -29.12,11.55 c -6.69,2.65 -11.232,0 -19.58,-13.73 l -3.012,1.19 13.422,26.05 3.18,-1.27 c -0.23,-1.06 0.18,-2 1.05,-2.73 0.87,-0.74 1.97,-1.37 3.15,-1.83 l 80.48,-31.91 c 2.34,-0.93 5.05,-1.42 6.18,0.45 l 3.18,-1.26 -8.07,-28.17 -3.01,1.2 c 3.33,15.71 1.84,20.76 -4.85,23.41 l -29.12,11.55 -32.77,-82.66" /><path
         id="path142"
         style="fill:#231f20;fill-opacity:1;fill-rule:nonzero;stroke:none"
         d="m 1203.91,1364.49 c 10.29,5.03 9.15,9.47 -0.43,15.88 l 1.9,2.84 33.83,-22.6 -1.91,-2.84 c -10.67,6.05 -17.71,4.91 -26.6,0.67 l -52.95,-25.45 -15,-22.45 c -5.3,-7.93 -4.56,-12.98 4.57,-19.08 l 1.95,-1.3 -1.9,-2.84 -41.16,27.5 1.9,2.84 2.84,-1.9 c 9.28,-6.2 14.28,-4.55 19.18,2.78 l 14.1,21.1 1.16,59.41 c 0.37,16.42 -1.68,20.82 -11.21,27.62 l 1.91,2.84 39.8,-26.6 -1.89,-2.84 c -11.68,7.8 -14.32,5.45 -14.44,-4.43 l -0.75,-52.97 45.1,21.82" /><path
         id="path144"
         style="fill:#231f20;fill-opacity:1;fill-rule:nonzero;stroke:none"
         d="m 1352.62,1150.13 c -20.32,-15.5 -49.45,-20.05 -67.24,3.28 -17.58,23.04 -12.54,55.63 14.22,76.04 17.18,13.1 48.29,20.98 67.5,-4.21 18.01,-23.62 12.14,-54.81 -14.48,-75.11 z m 14.99,-9.85 c 25.76,19.65 26.54,56.92 5.91,83.97 -23.25,30.48 -60.13,36.99 -88.61,15.27 -26.77,-20.41 -26.8,-57.78 -5.4,-85.84 21.17,-27.76 59.18,-35.45 88.1,-13.4" /><path
         id="path146"
         style="fill:#231f20;fill-opacity:1;fill-rule:nonzero;stroke:none"
         d="m 1405.36,1027.79 -1.32,2.76 c 9.27,4.82 10.56,9.62 6.84,17.42 l -14.34,30.05 -35.58,-16.97 c -9.09,-4.34 -11.57,-7.92 -5.76,-20.1 l -3.09,-1.48 -18.83,39.48 3.08,1.47 c 5.46,-9.76 8.43,-10.54 21.59,-4.26 l 63.68,30.39 c 10.39,4.96 14.71,8.02 9.45,19.47 l 3.09,1.47 34.72,-72.78 -19.16,-9.15 -1.32,2.76 c 9.34,4.66 11.69,9.77 6.89,19.84 l -14.73,30.87 -38.18,-18.21 15.35,-32.17 c 2.87,-6.01 7.67,-7.31 14.89,-4.46 l 1.32,-2.76 -28.59,-13.64" /><path
         id="path148"
         style="fill:#231f20;fill-opacity:1;fill-rule:nonzero;stroke:none"
         d="m 145.316,323.277 64.786,119.461 -0.27,0.371 -87.422,-55.75 c -9.898,-6.332 -6.816,-14.89 -1.109,-23.539 l -3.539,-2.566 -28.0901,38.723 3.5351,2.566 c 9.859,-13.59 14.055,-13.105 31.672,-1.742 l 75.66,48.07 c 12.828,8.172 15.906,10.973 8.277,23.055 l 3.352,2.433 20.395,-28.113 -61.278,-112.937 126.242,23.39 19.856,-27.363 -3.352,-2.434 c -7.363,8.582 -10.113,11.985 -16.176,7.02 L 217.844,266.781 C 201.527,253.238 202.609,251.75 212.469,238.16 l -3.539,-2.566 -34.711,47.844 3.539,2.566 c 6.347,-8.75 14.98,-15.559 24.308,-7.656 l 79.485,65.91 -0.27,0.371 -132.859,-25.633 -3.106,4.281" /><path
         id="path150"
         style="fill:#231f20;fill-opacity:1;fill-rule:nonzero;stroke:none"
         d="m 373.18,198.82 -32.055,23.578 47.5,31.586 L 373.18,198.82 Z M 370.332,188.352 357.945,145.5 c -0.621,-2.398 -1.367,-6.129 -3.55,-9.094 -3.813,-5.187 -8.524,-3.437 -19.086,4.328 l -4.817,3.543 -2.586,-3.519 50.949,-37.477 2.59,3.524 c -9.261,6.812 -11.793,11.527 -8.273,24.074 l 36.906,131.312 -16.121,11.856 -1.332,-5.301 -101.449,-67.289 c -17.781,-11.758 -21.321,-12.297 -33.5,-3.625 l -2.59,-3.519 42.801,-31.477 2.59,3.519 -2.965,2.18 c -10.188,7.492 -13.645,12.891 -9.965,17.895 1.906,2.593 8.406,6.379 12.289,8.945 l 32.141,21.188 38.355,-28.211" /><path
         id="path152"
         style="fill:#231f20;fill-opacity:1;fill-rule:nonzero;stroke:none"
         d="m 517.891,191.605 c 4.054,-0.949 6.875,-1.949 10.992,-3.41 33.383,-11.843 36.949,-30.679 29.797,-50.84 -9.227,-26.011 -28.664,-30.585 -52.723,-22.05 -4.988,1.769 -8.316,2.707 -13.289,5.203 l 25.223,71.097 z m -26.684,-75.218 c 3.395,-1.446 6.133,-2.66 10.902,-4.356 5.852,-2.074 9.399,-3.09 14.895,-4.793 3.973,-5.312 9.328,-14.2927 15.48,-27.2146 l 9.235,-19.3789 C 554.168,34.5078 561,22.8125 599.547,11.0898 l 1.387,3.9024 C 584.625,21.9961 574.25,34.707 565.996,52.0313 l -11.051,23.1992 c -6.574,13.8047 -10.922,22.1797 -16.715,31.3085 19.622,-1.101 35.52,8.633 41.29,24.891 7.843,22.109 -4.305,44.965 -44.407,59.191 -14.09,5 -18.504,6.32 -27.543,9.039 -9.043,2.719 -22.57,6.543 -27.773,8.387 l -1.461,-4.117 4.766,-1.692 c 12.574,-4.461 14.875,-9.668 10.109,-23.109 L 460.836,87.8711 C 455.684,73.3477 449.902,71.4961 437.113,76.0313 l -3.683,1.3085 -1.461,-4.121 61.344,-21.7618 1.46,4.1211 -4.984,1.7696 c -12.141,4.3046 -16.191,9.4023 -11.574,22.4062 l 12.992,36.6331" /><path
         id="path154"
         style="fill:#231f20;fill-opacity:1;fill-rule:nonzero;stroke:none"
         d="m 752.141,121.238 c 8.41,11.981 4.386,16.246 -10.282,17.496 l 0.371,4.356 51.793,-4.414 -0.371,-4.356 c -15.679,0.184 -22.855,-5.437 -30.187,-15.66 l -43.531,-61.1561 -2.93,-34.375 C 715.973,10.9844 719.914,5.80078 733.895,4.60938 L 736.875,4.35547 736.504,0 673.48,5.37109 l 0.372,4.35157 4.355,-0.3711 c 14.207,-1.21093 18.781,3.71094 19.738,14.94144 l 2.754,32.3125 -35.363,67.1835 c -9.727,18.602 -14.723,22.258 -29.582,23.988 l 0.371,4.352 60.961,-5.191 -0.371,-4.356 c -17.875,1.523 -19.391,-2.734 -13.414,-13.859 l 31.84,-59.7308 37,52.2458" /><path
         id="path156"
         style="fill:#231f20;fill-opacity:1;fill-rule:nonzero;stroke:none"
         d="M 943.301,17.8984 841.93,0.777344 l -0.731,4.308596 7.485,1.26562 c 10.433,1.76172 13.714,5.81644 11.761,17.37894 L 843.477,124.199 c -2.028,12.02 -6.5,16.395 -20.789,13.985 l -3.172,-0.539 -0.731,4.308 66.903,11.301 0.73,-4.309 -8.395,-1.418 c -14.738,-2.488 -18.328,-4.726 -15.953,-18.789 L 879.727,24.1875 c 1.035,-6.1211 3.914,-7.9687 10.488,-6.8594 l 33.34,5.6328 c 13.379,2.2579 16.582,8.1641 27.535,30.3086 l 4.082,0.6875 -11.871,-36.0586" /><path
         id="path158"
         style="fill:#231f20;fill-opacity:1;fill-rule:nonzero;stroke:none"
         d="m 1053.09,132.813 -36.72,-15.34 -2.62,56.984 39.34,-41.644 z m 7.51,-7.833 30.35,-32.6831 c 1.74,-1.7696 4.55,-4.3321 5.97,-7.7266 2.48,-5.9414 -1.44,-9.0781 -13.54,-14.1328 l -5.52,-2.3047 1.69,-4.0312 58.36,24.3828 -1.68,4.0312 c -10.62,-4.4336 -15.96,-4.1718 -24.9,5.3008 l -93.56,99.2536 -18.469,-7.711 3.859,-3.871 5.44,-121.613 c 0.93,-21.3008 -0.44,-24.6133 -14.139,-30.5859 l 1.684,-4.0313 49.025,20.4805 -1.69,4.0312 -3.39,-1.4179 c -11.67,-4.8789 -18.08,-5.0625 -20.47,0.6679 -1.24,2.9727 -1.14,10.4922 -1.34,15.1446 l -1.62,38.4649 43.94,18.351" /><path
         id="path160"
         style="fill:#231f20;fill-opacity:1;fill-rule:nonzero;stroke:none"
         d="m 1309.4,214.137 -171.25,20.207 62.85,-76.063 c 10.55,-12.765 15.59,-13.082 30.66,-0.629 l 2.78,-3.367 -41.14,-33.988 -2.78,3.367 0.71,0.586 c 10.99,9.086 11.47,15.738 4.72,23.895 l -72.07,87.23 c -6.43,-0.531 -12.21,-2.922 -18.56,-7.871 l -2.78,3.367 27.83,23 155.44,-18.051 -58.31,70.567 c -8.93,10.816 -13.73,10.129 -28.21,-1.239 l -2.79,3.372 41.49,34.281 2.79,-3.371 c -13.3,-10.989 -14.23,-15.637 -8.52,-22.551 l 81.75,-98.934 -4.61,-3.808" /><path
         id="path162"
         style="fill:#231f20;fill-opacity:1;fill-rule:nonzero;stroke:none"
         d="m 1275.77,391.188 c 1.3,2.441 4.09,8.031 9.21,15.953 17.48,27.043 33.11,36.386 47.73,39.531 18.77,4.031 37.23,-2.149 51.52,-11.387 19.9,-12.859 29.03,-31.359 31.36,-43 4.24,-19.719 0.92,-32.906 -15.81,-58.793 -9.87,-15.258 -12.94,-14.09 -20.86,-8.972 l -103.15,66.668 z m 89.31,-80.454 c 11.2,-7.242 10.98,-13.941 4.24,-24.375 l -2.13,-3.281 3.67,-2.375 39.95,61.817 c 31.59,48.871 11.23,94.066 -17.93,112.918 -31.88,20.601 -72.37,14.73 -105.33,-36.266 -6.49,-10.047 -13.91,-21.953 -20.39,-32.828 -6.48,-10.875 -12.21,-20.59 -16.45,-27.985 l 3.67,-2.375 2.5,3.868 c 7.37,11.394 12.58,12.679 25.14,4.566 l 83.06,-53.684" /><path
         id="path164"
         style="fill:#231f20;fill-opacity:1;fill-rule:nonzero;stroke:none"
         d="m 33.8633,812.168 0,-98.543 c 0,-5.098 1.0195,-6.457 6.289,-6.457 l 9.5196,0 0,-3.125 -42.70315,0 0,3.125 9.17965,0 c 5.4414,0 6.4649,1.527 6.4649,6.625 l 0,84.781 C 17.1719,793.816 7.64844,787.527 1.35938,784.641 L 0,787.02 c 9.85938,6.625 23.9531,19.367 27.9844,25.148 l 5.8789,0" /><path
         id="path166"
         style="fill:#231f20;fill-opacity:1;fill-rule:nonzero;stroke:none"
         d="m 132.188,728.082 c 0,-13.25 -9.723,-23.441 -22.516,-23.441 -12.9611,0 -22.5118,10.703 -22.5118,25.14 0,11.043 5.7968,19.539 17.3948,25.824 19.785,-9.003 27.633,-16.14 27.633,-27.523 z m 7.441,59.602 c 0,13.578 -13.656,24.457 -30.68,24.457 -16.7927,0 -30.8513,-12.575 -30.8513,-27.512 0,-11.539 7.2851,-20.199 23.1953,-27.324 -16.6641,-6.625 -24.7578,-15.969 -24.7578,-27.864 0,-15.457 14.5468,-27.871 32.9688,-27.871 18.93,0 33.562,13.602 33.562,31.27 0,13.082 -7.648,22.086 -25.546,30.062 14.933,5.942 22.109,13.918 22.109,24.782 z m -10.254,0.171 c 0,-9.675 -4.734,-17.484 -14.211,-23.425 -21.9921,9.336 -27.0663,16.125 -27.0663,25.461 0,10.695 9.1328,19.179 20.8083,19.179 11.844,0 20.469,-8.996 20.469,-21.215" /><path
         id="path168"
         style="fill:#231f20;fill-opacity:1;fill-rule:nonzero;stroke:none"
         d="m 1402.23,799.98 40.22,0 c 3.06,0 4.08,0.68 4.93,2.188 l 3.23,0 -1.87,-13.125 -42.95,0 -1.36,-30.449 c 5.26,2.855 11.37,4.199 18.33,4.199 19.01,0 34.82,-15.863 34.82,-35.008 0,-20.601 -17.17,-36.242 -39.91,-36.242 -13.58,0 -24.78,4.746 -24.78,10.703 0,2.895 2.55,5.277 5.61,5.277 9.16,0 12.38,-11.918 23.07,-11.918 12.56,0 23.26,13.11 23.26,28.602 0,15.664 -10.7,27.336 -25.29,27.336 -6.28,0 -12.9,-2.484 -17.99,-6.813 l -1.69,1.188 2.37,54.062" /><path
         id="path170"
         style="fill:#231f20;fill-opacity:1;fill-rule:nonzero;stroke:none"
         d="m 1531.56,724.324 c 0,-19.242 -8.16,-29.969 -20.06,-29.969 -10.71,0 -23.12,9.368 -23.12,37.973 0,5.789 0.34,8.176 0.85,10.559 10.37,8.343 18.02,10.218 22.44,10.218 11.39,0 19.89,-10.558 19.89,-28.781 z m 1.02,77.844 c -35.53,-10.02 -56.95,-34.98 -56.95,-66.434 0,-26.054 14.62,-44.191 35.53,-44.191 18.19,0 33.16,15.586 33.16,34.316 0,17.368 -13.44,31.309 -30.1,31.309 -8.33,0 -14.96,-2.707 -24.14,-9.855 3.74,24.816 17.85,41.476 44.37,52.355 l -1.87,2.5" /></g></g></svg>